<svg xmlns="http://www.w3.org/2000/svg" width="55" height="24" fill="none"><path fill="#000" d="m6.39 10.743 1.093.22c2.734.559 3.928 1.744 3.928 3.937 0 2.64-1.948 4.046-5.562 4.046H.998V16.17c1.533.309 3.092.473 4.656.491 2.083 0 3.14-.55 3.14-1.642 0-1.092-.541-1.456-2.86-1.913l-1.101-.203C2.115 12.36.905 11.149.905 8.965c0-2.463 1.98-3.92 5.359-3.92h4.334v2.777a18.625 18.625 0 0 0-4.131-.5c-1.871 0-2.938.576-2.938 1.575 0 1 .576 1.389 2.861 1.846Zm18.735 1.253v6.95h-4.436c-5.08 0-7.983-2.54-7.983-6.95s2.937-6.959 7.983-6.959h3.437v2.71a15.746 15.746 0 0 0-3.59-.424c-3.259 0-5.147 1.735-5.147 4.673 0 2.937 1.905 4.571 5.148 4.571h2.099v-4.571h2.489Z"/><path fill="#E60028" d="M55 0H31v10.802h24V0Z"/><path fill="#000" d="M55 13.198H31V24h24V13.198Z"/><path fill="#fff" d="M55 10.794H31v2.396h24v-2.396Z"/></svg>