<svg xmlns="http://www.w3.org/2000/svg" width="32" height="32" fill="none"><path stroke="#010035" stroke-width="2" d="m4.847 19.954 1.575-.629a3.5 3.5 0 0 1 2.991.189l6.723 3.718a.388.388 0 0 1 .154.522 3.2 3.2 0 0 1-4.125 1.416l-3.19-1.421"/><path stroke="#010035" stroke-width="2" d="m15.774 24.617 8.214-2.832a1.547 1.547 0 0 1 1.218 2.835l-12.034 6.26a.805.805 0 0 1-.714.014l-7.893-3.715M.076 18.71h4.198v10.077H.076"/><path stroke="#010035" stroke-width="2" d="M16.857 4.865h3.75c2.272 3.28 3.728 6.154 4.657 8.414 1.133 2.756-1.011 5.34-3.991 5.34H16.19c-2.98 0-5.123-2.582-3.989-5.338.93-2.258 2.385-5.13 4.656-8.416Z" clip-rule="evenodd"/><path stroke="#010035" stroke-width="2" d="M19.983 1.114h2.5l-1.875 3.751h-3.751l-1.876-3.75h3.751M18.732 4.865v4.376"/></svg>