<svg width="33" height="32" viewBox="0 0 33 32" fill="none" xmlns="http://www.w3.org/2000/svg">
<rect opacity="0.01" x="3" y="2.5" width="27" height="27" fill="white"/>
<path fill-rule="evenodd" clip-rule="evenodd" d="M16.5 2.5C17.0523 2.5 17.5 2.94772 17.5 3.5V5.875C17.5 6.42728 17.0523 6.875 16.5 6.875C15.9477 6.875 15.5 6.42728 15.5 5.875V3.5C15.5 2.94772 15.9477 2.5 16.5 2.5Z" fill="black"/>
<path fill-rule="evenodd" clip-rule="evenodd" d="M17.5 17.5V25.9375C17.5 28.3537 15.5412 30.3125 13.125 30.3125C10.7088 30.3125 8.75 28.3537 8.75 25.9375C8.75 25.3852 9.19772 24.9375 9.75 24.9375C10.3023 24.9375 10.75 25.3852 10.75 25.9375C10.75 27.2492 11.8133 28.3125 13.125 28.3125C14.4367 28.3125 15.5 27.2492 15.5 25.9375V17.5H17.5Z" fill="black"/>
<path fill-rule="evenodd" clip-rule="evenodd" d="M13.5387 6.45517C14.3417 5.6541 15.3428 5.0625 16.5 5.0625C17.6555 5.0625 18.6562 5.6503 19.46 6.44909C20.2659 7.25012 20.9525 8.33658 21.5092 9.53695C22.6222 11.9372 23.3052 14.9885 23.3052 17.6875H21.3345C21.3345 15.2767 20.7146 12.5081 19.7213 10.366C19.2248 9.29522 18.6573 8.42986 18.0707 7.84688C17.4819 7.26165 16.9516 7.03323 16.5 7.03323C16.0501 7.03323 15.5202 7.26208 14.9306 7.85031C14.3436 8.43599 13.7758 9.30476 13.279 10.3781C12.2851 12.5253 11.6656 15.2942 11.6656 17.6875H9.69482C9.69482 15.0048 10.3781 11.9538 11.4906 9.55028C12.0469 8.34818 12.7332 7.2588 13.5387 6.45517Z" fill="black"/>
<path fill-rule="evenodd" clip-rule="evenodd" d="M24.6734 10.5144C22.6019 8.38512 19.7056 7.0625 16.5003 7.0625C10.5403 7.0625 5.64835 11.6355 5.14188 17.4642H27.8587C27.6861 15.4773 27.0039 13.6364 25.9435 12.0727L27.3796 10.6365C28.9669 12.8387 29.902 15.5422 29.902 18.4642V19.4642H28.902H4.09863H3.09863V18.4642C3.09863 11.0626 9.09877 5.0625 16.5003 5.0625C20.2579 5.0625 23.6542 6.60891 26.0877 9.10003L24.6734 10.5144Z" fill="black"/>
</svg>
